<mxfile host="app.diagrams.net" modified="2023-04-12T05:03:47.342Z" agent="Mozilla/5.0 (Windows NT 10.0; Win64; x64) AppleWebKit/537.36 (KHTML, like Gecko) Chrome/111.0.0.0 Safari/537.36" version="21.1.4" etag="leL230v4qoL2sVfADsCb" type="github">
  <diagram name="페이지-1" id="rtqXYu8YwyhTVDyLpL5E">
    <mxGraphModel>
      <root>
        <mxCell id="0" />
        <mxCell id="1" parent="0" />
      </root>
    </mxGraphModel>
  </diagram>
</mxfile>
